<?xml version="1.0" encoding="utf-8"?>
<!-- Generator: Adobe Illustrator 20.0.0, SVG Export Plug-In . SVG Version: 6.00 Build 0)  -->
<svg version="1.1" id="Layer_1" xmlns="http://www.w3.org/2000/svg" xmlns:xlink="http://www.w3.org/1999/xlink" x="0px" y="0px"
	 viewBox="0 0 3343.7 1540.1" style="enable-background:new 0 0 3343.7 1540.1;" xml:space="preserve">
<style type="text/css">
	.st0{fill:url(#SVGID_1_);}
	.st1{fill:url(#SVGID_2_);}
	.st2{fill:#FFFFFF;}
</style>
<linearGradient id="SVGID_1_" gradientUnits="userSpaceOnUse" x1="1211.4166" y1="1540.0834" x2="1211.4166" y2="798.3956">
	<stop  offset="0" style="stop-color:#FFFFFF;stop-opacity:0.2"/>
	<stop  offset="1" style="stop-color:#FFFFFF;stop-opacity:0.5"/>
</linearGradient>
<polygon class="st0" points="2046.8,1540.1 2422.8,1361.4 0,798.4 0.1,805.7 2389.5,1365.1 2037.5,1532.1 2033.5,1540.1 "/>
<linearGradient id="SVGID_2_" gradientUnits="userSpaceOnUse" x1="0" y1="770.0417" x2="2807.5" y2="770.0417">
	<stop  offset="0" style="stop-color:#FFFFFF;stop-opacity:0.2"/>
	<stop  offset="0.65" style="stop-color:#FFFFFF"/>
</linearGradient>
<polygon class="st1" points="0,798.4 2807.5,0 2046.8,1540.1 2033.5,1540.1 2784.8,18.1 0,805.7 "/>
<g>
	<path class="st2" d="M1900.7,1039.7l-6.7,8.6c-6.4-4.1-9.5-5-13.5-5c-2.7,0-4.4,0.3-7.1,0.9c-2.1,0.5-4.4,0.7-6.9,0.7
		c-20.7,0-33.1-13.9-33.1-34.9c0-21.1,12.4-35,33.1-35c20.6,0,33.1,13.9,33.1,35c0,9.4-3.5,18.1-10.5,23.5
		C1893.2,1034.4,1896.7,1036.4,1900.7,1039.7z M1866.5,1034.8c11.8,0,19-9.2,19-24.9c0-15.7-7.2-24.9-19-24.9
		c-11.9,0-19.1,9.1-19.1,24.9C1847.4,1025.6,1854.5,1034.8,1866.5,1034.8z"/>
	<path class="st2" d="M2036.7,1016.2c0,2.8,0,4.8-0.2,7.9c-0.9,11.2-8.6,20.8-27.4,20.8c-18.8,0-26.6-9.6-27.5-20.8
		c-0.2-3.1-0.2-5-0.2-7.9v-39.7h13.3v41.1c0,1.9,0,3.4,0.2,4.9c0.6,7.7,5.2,12.4,14.2,12.4c8.8,0,13.5-4.8,14.1-12.4
		c0.2-1.5,0.2-2.9,0.2-4.9v-41.1h13.3V1016.2z"/>
	<path class="st2" d="M2151.2,987v56.5h-13.4V987h-22.7v-10.5h58.8V987H2151.2z"/>
	<path class="st2" d="M2432.6,1043.5v-67h13.4v67H2432.6z"/>
	<path class="st2" d="M2550,1043.5l-23.7-67h14.6l17.8,56.7l18.1-56.7h14.3l-24.2,67H2550z"/>
	<path class="st2" d="M2728.9,1009.1c0,20.5-12.2,32.1-27.8,34c-3.4,0.4-5,0.4-8.5,0.4h-22.9v-67h23.1c3.6,0,5.1,0,8.5,0.4
		C2716.8,978.7,2728.9,988.6,2728.9,1009.1z M2714.7,1009.3c0-13.2-6.4-20.7-16.3-21.9c-2.2-0.3-4.2-0.4-7.2-0.4h-8.2v45.9h8
		c2.9,0,5,0,7.1-0.3C2708.1,1031.3,2714.7,1023,2714.7,1009.3z"/>
	<path class="st2" d="M2947.3,1032.9v10.6h-48.8v-6.3l22.5-22c9-8.8,12.6-13.6,12.6-20c0-5.9-3.4-10.1-9.6-10.1
		c-6.7,0-9.9,4.2-10.8,12.2l-0.1,1h-13.3l0.1-1c1.4-14.4,10.3-22.2,25.3-22.2c14.8,0,22.5,7.9,22.5,19.3c0,8.4-4.2,14.5-16.4,26.4
		l-12.4,12.1H2947.3z"/>
	<path class="st2" d="M3080.9,1010c0,21-7.1,34.9-26,34.9c-19,0-26.1-13.9-26.1-34.9c0-21.2,7.1-34.9,26.1-34.9
		C3073.8,975.1,3080.9,988.8,3080.9,1010z M3066.7,1010c0-17.1-3.7-24.9-11.8-24.9c-8.3,0-11.9,7.8-11.9,24.9
		c0,16.9,3.7,24.9,11.9,24.9C3063,1034.8,3066.7,1026.9,3066.7,1010z"/>
	<path class="st2" d="M3201,1043.5h-13.4v-52.9l-19.5,10.8v-12.6l15.5-9.2c3.6-2,7.1-3,10.8-3h6.6V1043.5z"/>
	<path class="st2" d="M3343.7,1020.4c0,15.5-11.7,24.5-25.4,24.5c-16.8,0-25.7-10-25.7-32.7c0-24.9,11.8-37,27.7-37
		c13.3,0,21.4,7.3,22.7,18.8l0.1,1h-13.6l-0.2-1c-1.5-6-4.6-8.8-9.9-8.8c-7.7,0-12.4,6.8-13,23.3l3.4-6.1c3.6-2.9,7.2-3.9,11.9-3.9
		C3336.3,998.4,3343.7,1008,3343.7,1020.4z M3329.5,1022c0-7.9-3.8-13.6-11.5-13.6c-6,0-11.2,4.7-11.2,13.2
		c0,7.7,4.4,13.2,11.3,13.2C3325.1,1034.8,3329.5,1029.2,3329.5,1022z"/>
</g>
<g>
	<path class="st2" d="M2779.7,805.7c6.6-12.9,10.1-28.5,10.1-46c0-52.8-31.4-87.4-83-87.4c-51.8,0-83,34.6-83,87.4
		c0,17.5,3.5,33,10,46h37.9c-8.3-10.7-12.9-26.3-12.9-46c0-39.4,18-62.3,47.9-62.3c29.7,0,47.7,22.9,47.7,62.3
		c0,19.7-4.5,35.3-12.8,46H2779.7z"/>
	<path class="st2" d="M3311.4,805.7l-70.6-129.9h-44.5v129.9h33.6v-38c0-14.1-0.2-33.3-1.2-51.6l48.5,89.5H3311.4z"/>
	<path class="st2" d="M3343.5,675.8h-33.3v77.1c0,14.4,0.2,34.8,1.2,52.8h32.3L3343.5,675.8z"/>
	<path class="st2" d="M706.9,805.7c6.6-12.9,10.1-28.5,10.1-46c0-52.8-31.4-87.4-83-87.4c-51.8,0-83,34.6-83,87.4
		c0,17.5,3.5,33,10,46h37.9c-8.3-10.7-12.9-26.3-12.9-46c0-39.4,18-62.3,47.9-62.3c29.7,0,47.7,22.9,47.7,62.3
		c0,19.7-4.5,35.3-12.8,46H706.9z"/>
	<path class="st2" d="M1245.2,801.4c-1.9-18.7-8.3-32.6-24.8-38.9c20-5.6,32.8-19.2,32.8-40.9c0-29-19.7-41.6-44-44.5
		c-8.3-1-14.6-1.2-24.3-1.2h-61.3v129.9h33.6V776h19.5c4.4,0,8.5,0,13.1,0.2c13.5,1,20.3,11.7,22.6,29.4h33.4
		C1245.5,804.3,1245.3,802.9,1245.2,801.4z M1193.8,750.7c-3.6,0.2-7.8,0.2-13.6,0.2h-23.1v-48.9h24.6c6.1,0,10.2,0.2,14.1,0.7
		c13.1,1.7,22.1,7.5,22.1,23.8S1207.2,749.5,1193.8,750.7z"/>
	<polygon class="st2" points="2230.1,675.8 2105.3,675.8 2105.3,702.1 2190.2,702.1 2108.3,805.7 2148.1,805.7 2230.1,701.8 	"/>
	<rect x="1659.8" y="675.8" class="st2" width="33.6" height="129.9"/>
	<polygon class="st2" points="145.6,805.7 145.6,675.8 112.3,675.8 112.3,748.1 33.7,748.1 33.7,675.8 0.1,675.8 0.1,805.7 
		33.7,805.7 33.7,774.8 112.3,774.8 112.3,805.7 	"/>
</g>
</svg>
