<svg xmlns="http://www.w3.org/2000/svg" viewBox="0 0 238 226.26"><defs><style>.a{fill:#fff;}</style></defs><title>icon-place</title><path class="a" d="M225,159.5H179.93q-2.62,4.5-5.53,9H225c1.93,0,4,1.7,4,3.63V239.8a4.14,4.14,0,0,1-4,3.7H12.33A3.55,3.55,0,0,1,9,239.8V172.13a3.48,3.48,0,0,1,3.33-3.63h50.6q-2.91-4.5-5.53-9H12.33A12.48,12.48,0,0,0,0,172.13V239.8a12.55,12.55,0,0,0,12.33,12.7H225c6.89,0,13-5.81,13-12.7V172.13C238,165.24,231.89,159.5,225,159.5Z" transform="translate(0 -26.24)"/><path class="a" d="M118.67,221a4.5,4.5,0,0,1-3.44-1.6c-2.82-3.33-69-82.1-69-120.8a72.4,72.4,0,1,1,144.79,0c0,38.7-66.14,117.46-69,120.8A4.5,4.5,0,0,1,118.67,221Zm0-185.79a63.47,63.47,0,0,0-63.4,63.4c0,30.72,49.72,94,63.4,110.82,13.67-16.82,63.4-80.11,63.4-110.82A63.47,63.47,0,0,0,118.67,35.24Z" transform="translate(0 -26.24)"/><path class="a" d="M118.67,130.23a31.6,31.6,0,1,1,31.6-31.6A31.64,31.64,0,0,1,118.67,130.23Zm0-54.2a22.6,22.6,0,1,0,22.6,22.6A22.63,22.63,0,0,0,118.67,76Z" transform="translate(0 -26.24)"/></svg>