<svg xmlns="http://www.w3.org/2000/svg" xmlns:xlink="http://www.w3.org/1999/xlink" viewBox="0 0 3343.69 1540.08"><defs><style>.a{fill:url(#a);}.b{fill:url(#b);}.c{fill:#fff;}</style><linearGradient id="a" y1="1169.24" x2="2422.83" y2="1169.24" gradientUnits="userSpaceOnUse"><stop offset="0" stop-color="#fff" stop-opacity="0.2"/><stop offset="1" stop-color="#fff" stop-opacity="0.5"/></linearGradient><linearGradient id="b" y1="770.04" x2="2807.5" y2="770.04" gradientUnits="userSpaceOnUse"><stop offset="0" stop-color="#fff" stop-opacity="0.2"/><stop offset="0.65" stop-color="#fff"/></linearGradient></defs><title>horizon-logo-final</title><polygon class="a" points="2046.83 1540.08 2422.83 1361.42 0 798.4 0.12 805.73 2389.5 1365.08 2037.46 1532.06 2033.5 1540.08 2046.83 1540.08"/><polygon class="b" points="0 798.4 2807.5 0 2046.83 1540.08 2033.5 1540.08 2784.83 18.08 0 805.73 0 798.4"/><path class="c" d="M1900.66,1039.68l-6.7,8.64c-6.41-4.08-9.51-5-13.5-5a29.48,29.48,0,0,0-7.09.87,30.76,30.76,0,0,1-6.89.68c-20.68,0-33.11-13.88-33.11-34.86s12.43-35,33.11-35,33.11,13.88,33.11,35c0,9.42-3.5,18.06-10.49,23.5C1893.19,1034.43,1896.68,1036.38,1900.66,1039.68Zm-34.18-4.86c11.85,0,19-9.22,19-24.86s-7.18-24.86-19-24.86-19.13,9.13-19.13,24.86S1854.55,1034.82,1866.49,1034.82Z"/><path class="c" d="M2036.7,1016.18c0,2.82,0,4.76-.2,7.87-0.87,11.17-8.64,20.78-27.38,20.78s-26.6-9.61-27.48-20.78c-0.19-3.11-.19-5-0.19-7.87V976.47h13.3v41.07a36.67,36.67,0,0,0,.19,4.85c0.58,7.67,5.24,12.43,14.18,12.43s13.5-4.76,14.08-12.43a36.85,36.85,0,0,0,.19-4.85V976.47h13.3v39.71Z"/><path class="c" d="M2151.17,987v56.51h-13.4V987h-22.72V976.47h58.84V987h-22.72Z"/><path class="c" d="M2432.55,1043.46v-67H2446v67h-13.4Z"/><path class="c" d="M2550,1043.46l-23.69-67h14.56l17.77,56.7,18.06-56.7H2591l-24.18,67H2550Z"/><path class="c" d="M2728.89,1009.09c0,20.49-12.23,32.14-27.77,34a61.46,61.46,0,0,1-8.54.39h-22.91v-67h23.11a61.46,61.46,0,0,1,8.54.39C2716.85,978.7,2728.89,988.61,2728.89,1009.09Zm-14.18.19c0-13.2-6.41-20.68-16.31-21.94a51.62,51.62,0,0,0-7.18-.39h-8.16v45.92h8a51.71,51.71,0,0,0,7.09-.29C2708.11,1031.33,2714.71,1023,2714.71,1009.29Z"/><path class="c" d="M2947.35,1032.88v10.58h-48.84v-6.31l22.53-22c9-8.84,12.62-13.59,12.62-20,0-5.92-3.4-10.1-9.61-10.1-6.7,0-9.9,4.17-10.78,12.23l-0.1,1h-13.3l0.1-1c1.36-14.37,10.29-22.23,25.34-22.23,14.76,0,22.53,7.86,22.53,19.32,0,8.45-4.17,14.47-16.41,26.41L2919,1032.88h28.35Z"/><path class="c" d="M3080.85,1010c0,21-7.09,34.86-26,34.86s-26.12-13.88-26.12-34.86c0-21.17,7.09-34.86,26.12-34.86S3080.85,988.8,3080.85,1010Zm-14.17,0c0-17.09-3.69-24.86-11.85-24.86s-11.94,7.77-11.94,24.86c0,16.89,3.69,24.86,11.94,24.86S3066.68,1026.86,3066.68,1010Z"/><path class="c" d="M3201,1043.46h-13.4V990.55L3168,1001.33V988.7l15.53-9.22a21.33,21.33,0,0,1,10.78-3h6.6v67Z"/><path class="c" d="M3343.69,1020.36c0,15.53-11.65,24.47-25.44,24.47-16.8,0-25.73-10-25.73-32.72,0-24.86,11.84-37,27.67-37,13.3,0,21.36,7.28,22.72,18.84l0.1,1h-13.59l-0.19-1c-1.46-6-4.56-8.84-9.9-8.84-7.67,0-12.43,6.8-13,23.3l3.4-6.12c3.59-2.91,7.19-3.88,11.94-3.88C3336.31,998.41,3343.69,1008,3343.69,1020.36Zm-14.18,1.65c0-7.86-3.79-13.59-11.46-13.59-6,0-11.17,4.66-11.17,13.2,0,7.67,4.37,13.2,11.26,13.2S3329.52,1029.19,3329.52,1022Z"/><path class="c" d="M2779.66,805.73c6.56-12.94,10.07-28.47,10.07-46,0-52.8-31.39-87.35-83-87.35-51.83,0-83,34.55-83,87.35,0,17.52,3.48,33,10,46h37.9c-8.32-10.68-12.87-26.3-12.87-46,0-39.42,18-62.29,47.93-62.29,29.68,0,47.69,22.87,47.69,62.29,0,19.68-4.55,35.31-12.84,46h38.05Z"/><path class="c" d="M3311.39,805.73L3240.83,675.8H3196.3V805.73h33.58v-38c0-14.11-.24-33.33-1.22-51.58l48.53,89.54h34.2Z"/><path class="c" d="M3343.5,675.8h-33.33v77.13c0,14.36.24,34.79,1.22,52.8h32.31Z"/><path class="c" d="M706.86,805.73c6.56-12.94,10.06-28.47,10.06-46,0-52.8-31.39-87.35-83-87.35-51.83,0-83,34.55-83,87.35,0,17.52,3.48,33,10,46h37.9c-8.32-10.68-12.87-26.3-12.87-46,0-39.42,18-62.29,47.93-62.29,29.69,0,47.69,22.87,47.69,62.29,0,19.68-4.55,35.31-12.84,46h38.05Z"/><path class="c" d="M1245.16,801.35c-1.95-18.74-8.27-32.6-24.82-38.93,20-5.6,32.85-19.22,32.85-40.88,0-29-19.71-41.61-44-44.53a189.19,189.19,0,0,0-24.33-1.22H1123.5V805.73h33.58V776h19.47c4.38,0,8.52,0,13.14.24,13.5,1,20.31,11.73,22.56,29.44h33.42C1245.49,804.31,1245.32,802.86,1245.16,801.35Zm-51.34-50.61c-3.65.24-7.79,0.24-13.63,0.24h-23.12V702.08h24.57a109.73,109.73,0,0,1,14.11.73c13.14,1.7,22.14,7.54,22.14,23.85S1207.2,749.53,1193.82,750.74Z"/><polygon class="c" points="2230.09 675.8 2105.27 675.8 2105.27 702.08 2190.19 702.08 2108.27 805.73 2148.12 805.73 2230.09 701.84 2230.09 675.8"/><rect class="c" x="1659.77" y="675.8" width="33.58" height="129.93"/><polygon class="c" points="145.62 805.73 145.62 675.8 112.28 675.8 112.28 748.07 33.69 748.07 33.69 675.8 0.12 675.8 0.12 805.73 33.69 805.73 33.69 774.83 112.28 774.83 112.28 805.73 145.62 805.73"/></svg>