<svg xmlns="http://www.w3.org/2000/svg" viewBox="0 0 161.05 201.22"><defs><style>.a{fill:#f2f2f2;}</style></defs><title>icon-bodyshot</title><path class="a" d="M205,185.24V157.12a0.76,0.76,0,0,0,0-.15v-1.25a0.17,0.17,0,0,0,0-.11,8.73,8.73,0,0,0-.11-1A47.49,47.49,0,0,0,184.47,119h-0.05v-0.09l-0.87-.58-0.09-.07c-0.85-.66-1.72-1.3-2.6-1.86l-0.25-.15a51.75,51.75,0,0,0-27.45-8H95.87a51.82,51.82,0,0,0-27.47,8l-0.25.15c-1.36.85-2.67,1.85-3.94,2.83l-0.92.72-0.12.1c-0.43.32-.85,0.65-1.27,1s-0.83.66-1.24,1-0.81.7-1.2,1a13,13,0,0,0-1.16,1.09l-0.76.73c-0.33.34-.65,0.62-1,1a0.9,0.9,0,0,1-.45.38h0v0.18c-0.27.3-.54,0.73-0.8,1l-0.19.23-0.2.24-0.11.14a0.52,0.52,0,0,0-.1.11c-0.69.83-1.35,1.69-2,2.58-0.21.29-.42,0.59-0.62,0.89q-0.51.75-1,1.53c-0.15.23-.29,0.46-0.43,0.7-0.58,1-1.13,2-1.64,3-0.32.63-.62,1.27-0.91,1.91-0.14.32-.29,0.65-0.42,1s-0.32.74-.46,1.12l-0.33.86-0.36,1c-0.14.39-.27,0.79-0.39,1.19-0.2.62-.38,1.25-0.56,1.89-0.13.46-.24,0.93-0.35,1.39-0.06.23-.11,0.47-0.16,0.71-0.31,1.38-.56,2.77-0.74,4.19,0,0.37-.1.75-0.13,1.13-0.08.75-.15,1.51-0.19,2.28v0.11h0c0,0.82,0,1.65,0,2.48v33a8,8,0,0,0,4,7h0l0.24,0.13a12.22,12.22,0,0,0,8,3H192.78a12.46,12.46,0,0,0,8.26-3.15h0.07a8,8,0,0,0,3.89-7v-0.55c0.06-.59,0-1.21,0-1.83v-3.46h0Zm-152-9V160.65c0-23.77,19.1-43.41,42.87-43.41h57.29c23.77,0,42.84,19.64,42.84,43.41V188.7a3.31,3.31,0,0,1-3.07,3.53H56.25A3.34,3.34,0,0,1,53,188.82s0-.08,0-0.12V176.24Z" transform="translate(-43.98)"/><path class="a" d="M124.55,0a48.5,48.5,0,1,0,48.5,48.5A48.5,48.5,0,0,0,124.55,0Zm0,88.92A40.42,40.42,0,1,1,165,48.5a40.42,40.42,0,0,1-40.45,40.42h0Z" transform="translate(-43.98)"/></svg>