<svg xmlns="http://www.w3.org/2000/svg" viewBox="0 0 249 201.24"><defs><style>.a{fill:#f2f2f2;}</style></defs><title>icon-graduates</title><path class="a" d="M9,172.24V156.89c0-22.22,17.8-40.65,40-40.65H49.3a58.93,58.93,0,0,1,11-8.8l0.33-.2H49.1C21.89,107.24,0,129.68,0,156.89v15.35c0,6.89,5.36,13,12.25,13H32v-9H12.25C10.32,176.24,9,174.17,9,172.24Z"/><path class="a" d="M199.93,107.24H188.25l0.5,0.3a60,60,0,0,1,10.92,8.7H200c22.21,0,40,18.43,40,40.65v15.35c0,1.93-1.29,4-3.22,4H217v9h19.78c6.9,0,12.22-6.11,12.22-13V156.89C249,129.68,227.14,107.24,199.93,107.24Z"/><path class="a" d="M191.93,88.07a26.94,26.94,0,0,1-14.76-4.38,61.63,61.63,0,0,1-5.61,7.06,0,0,0,0,0,0,0,36.14,36.14,0,1,0,12.14-65,62.46,62.46,0,0,1,2.68,8.62A27.15,27.15,0,1,1,191.93,88.07Z"/><path class="a" d="M59.93,97.07a35.92,35.92,0,0,0,19.87-6,62.24,62.24,0,0,1-5.68-7.06A27.14,27.14,0,1,1,59.93,33.77a26.55,26.55,0,0,1,4.75.42,61.53,61.53,0,0,1,2.72-8.64A36.15,36.15,0,1,0,59.93,97.07Z"/><path class="a" d="M205,185.24v-27c0-.14,0-0.29,0-0.43s0-.46,0-0.69a0.76,0.76,0,0,0,0-.15c0-.21,0-0.42,0-0.63s0-.41,0-0.62a0.17,0.17,0,0,0,0-.11c0-.33-0.07-0.66-0.11-1A47.49,47.49,0,0,0,184.47,119l-0.05,0h0s0-.08,0-0.09l-0.87-.58-0.09-.07c-0.85-.66-1.72-1.3-2.6-1.86l-0.25-.15a51.75,51.75,0,0,0-27.45-8H95.87a51.82,51.82,0,0,0-27.47,8l-0.25.15c-1.36.85-2.67,1.85-3.94,2.83l-0.92.72-0.12.1c-0.43.32-.85,0.65-1.27,1s-0.83.66-1.24,1-0.81.7-1.2,1-0.78.71-1.16,1.09l-0.76.73c-0.33.34-.65,0.62-1,1a0.9,0.9,0,0,1-.45.38h0s0,0.16,0,.18c-0.27.3-.54,0.73-0.8,1l-0.19.23-0.2.24-0.11.14a0.52,0.52,0,0,0-.1.11c-0.69.83-1.35,1.69-2,2.58-0.21.29-.42,0.59-0.62,0.89q-0.51.75-1,1.53c-0.15.23-.29,0.46-0.43,0.7-0.58,1-1.13,2-1.64,3-0.32.63-.62,1.27-0.91,1.91-0.14.32-.29,0.65-0.42,1s-0.32.74-.46,1.12l-0.33.86-0.36,1c-0.14.39-.27,0.79-0.39,1.19-0.2.62-.38,1.25-0.56,1.89-0.13.46-.24,0.93-0.35,1.39-0.06.23-.11,0.47-0.16,0.71-0.31,1.38-.56,2.77-0.74,4.19-0.05.37-.1,0.75-0.13,1.13-0.08.75-.15,1.51-0.19,2.28,0,0,0,.07,0,0.11v0c-0.05.82,0,1.65,0,2.48v30.6c0,0.58,0,1.15,0,1.7v0.68a8,8,0,0,0,4.05,7l0,0,0.24,0.13a12.22,12.22,0,0,0,8,3H192.78a12.46,12.46,0,0,0,8.26-3.15l0.07,0a8,8,0,0,0,3.89-7v-0.55c0.06-.59,0-1.21,0-1.83v-3.46Zm-152-9V160.65c0-23.77,19.1-43.41,42.87-43.41h57.29c23.77,0,42.84,19.64,42.84,43.41V188.7a3.31,3.31,0,0,1-3.22,3.54H56.25A3.34,3.34,0,0,1,53,188.7V176.24Z"/><path class="a" d="M124.55,0a48.5,48.5,0,1,0,48.5,48.5A48.5,48.5,0,0,0,124.55,0Zm0,88.92A40.42,40.42,0,1,1,165,48.5,40.42,40.42,0,0,1,124.55,88.92Z"/></svg>