<svg xmlns="http://www.w3.org/2000/svg" viewBox="0 0 225.24 198.52"><defs><style>.a{fill:#f2f2f2;}</style></defs><title>icon-place</title><path class="a" d="M193,112.24h-5.81s-0.07.34-.09,0.4q-2.45,4.09-5.14,8.6h11a35.5,35.5,0,0,1,0,71H55.62a35.5,35.5,0,0,1,0-71H66.68q-2.72-4.5-5.14-8.6c0-.06-0.07-0.4-0.09-0.4H55.62c-24.2,0-43.91,20.29-43.91,44.5s19.7,44.5,43.91,44.5H193c24.21,0,43.92-20.29,43.92-44.5S217.25,112.24,193,112.24Z" transform="translate(-11.71 -2.72)"/><path class="a" d="M82.08,122c1.67,2.66,3.38,5.3,5.1,7.9l0.1,0.15a550.36,550.36,0,0,0,34,45.44,4,4,0,0,0,6.15,0,547.18,547.18,0,0,0,34-45.44l0.1-.15c1.72-2.59,3.43-5.24,5.1-7.9l0.1-.15c12.15-19.37,22.4-40,22.4-54.41a64.75,64.75,0,0,0-129.51,0c0,14.41,10.26,35,22.4,54.41ZM124.33,10.77A56.77,56.77,0,0,1,181,67.47c0,13.77-11.19,34.89-23.89,54.41L157,122q-2.6,4-5.27,7.9l-0.11.15c-11,16.07-22.12,30.09-27.34,36.51C119.12,160.17,108,146.16,97,130.08l-0.11-.15c-1.77-2.58-3.54-5.22-5.28-7.9l-0.1-.15c-12.7-19.52-23.88-40.63-23.88-54.41A56.77,56.77,0,0,1,124.33,10.77Z" transform="translate(-11.71 -2.72)"/><path class="a" d="M124.33,95.73A28.26,28.26,0,1,0,96.07,67.47,28.29,28.29,0,0,0,124.33,95.73Zm0-48.48a20.21,20.21,0,1,1-20.21,20.21A20.23,20.23,0,0,1,124.33,47.25Z" transform="translate(-11.71 -2.72)"/></svg>