<svg xmlns="http://www.w3.org/2000/svg" viewBox="0 0 269 212.2"><defs><style>.a{fill:#fff;}</style></defs><title>icon-graduates</title><path class="a" d="M253,183.84V191a11.81,11.81,0,0,1-11.78,11.47h-8.37a39.89,39.89,0,0,0-1.56-9s0,0.07,0,0a4.57,4.57,0,0,1,1.34-.07h8.61A2.82,2.82,0,0,0,244,191v-7.19c0-20.14-16.77-36.34-36.91-36.34h-2.28c-1.62-1-2.31,0-3.3-.49a4.76,4.76,0,0,1-2.51-4.07v-0.13a4.61,4.61,0,0,1,2.92-4.16A38.33,38.33,0,0,0,187.24,69.9l-0.24,0h0a0.08,0.08,0,0,1,0,0,85.18,85.18,0,0,0-6.46-9.67A47.5,47.5,0,0,1,215.22,139,45.8,45.8,0,0,1,253,183.84Z" transform="translate(16 -40.3)"/><path class="a" d="M54.56,60.48A86.76,86.76,0,0,0,48,70.25h0A38.42,38.42,0,0,0,33.4,139a4.35,4.35,0,0,1,2.6,4.17v0.13a5,5,0,0,1-2.21,4.4,6.15,6.15,0,0,1-3,.82H29.52C9.38,148.5-7,164-7,184.17v7.2c0,1.31,1.07,3.13,2.39,3.13H3a4.44,4.44,0,0,1,.9.09,40.17,40.17,0,0,0-1.45,8.91H-4.61c-6.28,0-11.39-5.85-11.39-12.13v-7.2A45.6,45.6,0,0,1,20.71,139.5,47.31,47.31,0,0,1,54.56,60.48Z" transform="translate(16 -40.3)"/><path class="a" d="M180.93,159.3a2.43,2.43,0,0,0-.28.2h0a1,1,0,0,0-.32.4c-2.31,2.89-4.81,5.6-7.51,8.6h1A42.77,42.77,0,0,1,217,211.12v28c0,1.93-1.6,4.33-3.53,4.33H22c-1.93,0-4-2.4-4-4.33v-28c0-23.78,19.84-42.62,43.61-42.62h1.06c-2.82-3-5.69-5.77-8.08-8.81C29.05,163,9,184.67,9,211.12v28c0,6.89,6.1,13.33,13,13.33H213.47c6.89,0,12.53-6.44,12.53-13.33v-28C226,184.78,206.34,163.41,180.93,159.3Z" transform="translate(16 -40.3)"/><path class="a" d="M180.65,159h0l-0.32.4,0.32,0,0.3-.39Zm6.59-89.1,0,0h0l-0.2,0a0.08,0.08,0,0,0,0,0h0Z" transform="translate(16 -40.3)"/><path class="a" d="M117.73,179.3a69.5,69.5,0,1,1,69.5-69.5A69.58,69.58,0,0,1,117.73,179.3Zm0-130a60.5,60.5,0,1,0,60.5,60.5A60.57,60.57,0,0,0,117.73,49.3Z" transform="translate(16 -40.3)"/></svg>