<svg xmlns="http://www.w3.org/2000/svg" viewBox="0 0 238 252.67"><defs><style>.a{fill:#fff;}</style></defs><title>icon-event</title><path class="a" d="M131,18.5v9h27v-9H131Zm93.5,0H185v9h39a2.84,2.84,0,0,1,3,3.17V70.5H8V30.67a3.09,3.09,0,0,1,3.33-3.17H49v-9H11.5C4.6,18.5-1,23.6-1,30.5v151c0,6.9,5.6,13,12.5,13H37.84c-0.35-3-.56-6-0.63-8H11.33C9.4,186.5,8,183.93,8,182V79.5H227V182c0,1.93-1.07,4.5-3,4.5H197.46c-0.07,2-.28,5-0.63,8H224.5c6.9,0,12.5-6.1,12.5-13V30.5C237,23.6,231.4,18.5,224.5,18.5ZM76,18.5v9h28v-9H76Z" transform="translate(1 -0.5)"/><path class="a" d="M67,5V39a4.5,4.5,0,0,1-9,0V5A4.5,4.5,0,0,1,67,5Z" transform="translate(1 -0.5)"/><path class="a" d="M122,5V39a4.5,4.5,0,0,1-9,0V5A4.5,4.5,0,0,1,122,5Z" transform="translate(1 -0.5)"/><path class="a" d="M176,5V39a4.5,4.5,0,0,1-9,0V5A4.5,4.5,0,0,1,176,5Z" transform="translate(1 -0.5)"/><path class="a" d="M117.33,253.17a69.5,69.5,0,1,1,69.5-69.5A69.58,69.58,0,0,1,117.33,253.17Zm0-130a60.5,60.5,0,1,0,60.5,60.5A60.57,60.57,0,0,0,117.33,123.17Z" transform="translate(1 -0.5)"/><path class="a" d="M142.27,202.16L122,181.89V143a4.5,4.5,0,0,0-9,0v41a4.48,4.48,0,0,0,2.28,3.89l20.63,20.63A4.5,4.5,0,0,0,142.27,202.16Z" transform="translate(1 -0.5)"/></svg>