<svg xmlns="http://www.w3.org/2000/svg" viewBox="0 0 179.97 209.33"><defs><style>.a{fill:#f3f3f3;}.b{fill:#5e5e5e;}</style></defs><title>icon-work</title><path class="a" d="M24.41,201.31a4.23,4.23,0,0,1-4.54-3.88L8,46.37a4.23,4.23,0,0,1,3.88-4.54L32.63,40.2l0.73-8.08-22.1,1.74A12.21,12.21,0,0,0,0,47L11.9,198.06a12.23,12.23,0,0,0,12.16,11.27c0.33,0,.65,0,1,0l108.26-8.51a12.12,12.12,0,0,0,8.33-4.24,11.82,11.82,0,0,0,1.39-2l-15-1.35Z"/><path class="b" d="M168.85,9.82L60.7,0.05A12.23,12.23,0,0,0,47.43,11.12l-1.81,20-0.73,8.08L33.79,162A12.22,12.22,0,0,0,44.87,175.3l91.31,8.25,8.08,0.73,8.76,0.79a10.48,10.48,0,0,0,1.12,0A12.22,12.22,0,0,0,166.29,174L179.92,23.09A12.23,12.23,0,0,0,168.85,9.82ZM158.32,173.28a4.23,4.23,0,0,1-4.58,3.83l-10.12-.91-8.08-.73-90-8.13a4.23,4.23,0,0,1-3.83-4.59L53,38.6l0.73-8.08L55.4,11.84A4.22,4.22,0,0,1,59.6,8H60l108.15,9.78A4.22,4.22,0,0,1,172,22.37Z"/><path class="a" d="M168.85,9.82L60.7,0.05A12.23,12.23,0,0,0,47.43,11.12L33.79,162A12.22,12.22,0,0,0,44.87,175.3L153,185.07a10.48,10.48,0,0,0,1.12,0A12.22,12.22,0,0,0,166.29,174L179.92,23.09A12.23,12.23,0,0,0,168.85,9.82ZM158.32,173.28a4.23,4.23,0,0,1-4.58,3.83L45.59,167.34a4.23,4.23,0,0,1-3.83-4.59L55.4,11.84A4.22,4.22,0,0,1,59.6,8H60l108.15,9.78A4.22,4.22,0,0,1,172,22.37Z"/></svg>