<svg xmlns="http://www.w3.org/2000/svg" viewBox="0 0 1264 558"><defs><style>.a{fill:#fff;}</style></defs><title>map</title><path class="a" d="M249.18,0H0V558H1013v-1H752V506H462v51H249V469h-1v88H1V310H248v87h1V309H1V249H249V161h-1v87H1V1H248V89h1V1H1263V557H1121v1h143V0H249.18ZM463,507H751v50H463V507Z"/><path class="a" d="M464.64,390L667.26,187.34,615,135.05,412.35,337.67Zm201.2-202.62-201.2,201.2-50.88-50.88L615,136.47Z"/><path class="a" d="M770.51,390L973.12,187.34l-52.29-52.29L718.22,337.67Zm201.2-202.62-201.2,201.2-50.88-50.88,201.2-201.2Z"/></svg>